<?xml version="1.0" standalone="no"?><!DOCTYPE svg PUBLIC "-//W3C//DTD SVG 1.1//EN" "http://www.w3.org/Graphics/SVG/1.1/DTD/svg11.dtd"><svg class="icon" width="200px" height="112.47px" viewBox="0 0 1821 1024" version="1.1" xmlns="http://www.w3.org/2000/svg"><path fill="#333333" d="M965.038 470.453h90.585v37.296h-90.585v-37.296zM1256.673 201.28h-699.282c-167.098 0-302.561 129.781-302.561 289.871s135.461 289.871 302.561 289.871h226.844l122.802 227.396 131.067-227.396h218.565c167.113 0 302.573-129.781 302.573-289.871s-135.46-289.871-302.572-289.871zM586.713 569.031c16.849-4.428 36.404-9.326 58.611-14.65v-166.514h-55.948v-17.317h125.215v17.317h-50.622v161.184c14.187-3.535 31.076-7.993 50.622-13.322 0 3.566 0.866 9.789 2.66 18.649-27.541 7.123-69.262 18.214-125.215 33.3l-5.331-18.649zM886.435 587.682c0 34.636-18.214 51.486-54.612 50.622-8.891 0.866-24.882 1.334-47.957 1.334-0.905-3.566-1.799-7.993-2.66-13.322-0.905-2.66-1.334-4.896-1.334-6.66 9.759 0.866 26.645 1.334 50.622 1.334 24.843 0.866 37.296-9.789 37.296-31.966 2.66-39.961 4.859-97.679 6.66-173.178h-89.254c0 3.566 0 8.891 0 15.986-0.905 7.123-1.334 12.452-1.334 15.986-3.566 90.585-37.296 156.756-101.238 198.484-1.799-1.799-4.896-4.896-9.326-9.326-3.566-2.66-5.797-4.462-6.66-5.331 63.042-35.501 95.908-97.241 98.574-185.169 0-2.66 0-6.66 0-11.99 0.866-7.993 1.334-14.187 1.334-18.649h-45.294v-17.317h46.624c0.866-15.986 1.334-38.631 1.334-67.939h18.649c0 30.207-0.462 52.851-1.334 67.939h106.566c-1.799 76.393-3.998 139.438-6.66 189.165zM1042.296 640.964c-9.789 0-20.446 0-31.966 0 0-5.331-0.905-11.125-2.66-17.317 2.66 0 7.532 0 14.65 0 7.095 0.866 12.419 1.334 15.986 1.334 12.419 0 18.183-5.331 17.317-15.986v-34.636h-90.585v69.269h-17.317v-187.829h125.215v153.194c0.866 21.315-9.326 31.966-30.64 31.966zM1086.253 438.482c-1.799-2.66-4.462-5.761-7.993-9.326-4.462-4.428-7.558-7.993-9.326-10.654-50.622 1.799-87.486 3.566-110.57 5.331-8.891 0-16.453 0.905-22.646 2.66l-7.993-17.317c6.193-3.535 12.85-8.855 19.983-15.986 21.315-23.081 39.499-45.726 54.612-67.939l17.317 7.993c-23.978 30.207-45.294 55.084-63.942 74.596 3.535 0 9.326-0.43 17.317-1.334 36.404-0.866 63.942-2.197 82.59-3.998-8.891-10.654-18.649-20.85-29.309-30.64l13.322-10.654c19.514 18.649 39.961 40.431 61.28 65.27l-14.65 11.99zM1242.109 607.656c-3.566 21.315-17.78 31.507-42.627 30.64h-45.294c-26.645 0.866-39.532-11.125-38.631-35.964v-110.57h17.317v57.282c35.501-13.322 69.269-28.838 101.238-46.624l9.326 15.986c-36.434 18.649-73.262 35.101-110.57 49.287v31.966c-0.905 15.088 7.532 22.181 25.312 21.315h38.631c16.849 0 26.645-5.797 29.309-17.317 1.765-7.993 3.091-19.514 3.998-34.636 2.66 0.905 6.193 1.799 10.654 2.66 2.66 1.799 4.859 2.66 6.66 2.66-0.905 8.891-2.66 19.983-5.331 33.3zM1243.441 431.821c-0.905 3.566-1.334 5.797-1.334 6.66-4.462 22.211-19.114 32.871-43.957 31.966h-42.627c-27.542 0.905-40.864-11.093-39.961-35.964v-105.239h17.317v62.608c25.742-8.855 57.282-23.51 94.577-43.957l10.654 14.65c-31.966 16.893-67.071 32.871-105.239 47.957v21.315c-0.905 15.986 7.532 23.547 25.312 22.646h38.631c15.986 0 25.312-6.66 27.975-19.983 2.66-7.095 4.428-19.084 5.331-35.964 6.193 2.66 11.99 4.462 17.317 5.331-0.905 7.123-2.234 16.453-3.998 27.975zM965.038 522.408h90.585v37.296h-90.585v-37.296z" /></svg>